<svg xmlns="http://www.w3.org/2000/svg" width="272.081" height="589.146" viewBox="0 0 272.081 589.146">
  <path id="Image_Place_here" data-name="Image Place here" d="M244.51,589.146H27.571A27.6,27.6,0,0,1,0,561.575v-534A27.6,27.6,0,0,1,27.571,0H56.784a4.942,4.942,0,0,1,3.795,3.751c.119.525.244,1.212.388,2.007.278,1.53.623,3.428,1.136,5.346.664,2.481,3.595,10.584,13.444,10.686,3.715.038,26.877.046,45.653.046,34.54,0,74.173-.027,76.028-.046,9.849-.1,12.78-8.2,13.444-10.686.514-1.922.86-3.822,1.137-5.35.145-.8.269-1.481.388-2A4.783,4.783,0,0,1,215.958,0H244.51a27.6,27.6,0,0,1,27.571,27.571v534A27.6,27.6,0,0,1,244.51,589.146Z" transform="translate(0 0)" fill="#e3e3e3"/>
</svg>
