<svg xmlns="http://www.w3.org/2000/svg" width="10.579" height="22.913" viewBox="0 0 10.579 22.913">
  <path id="Path_5409" data-name="Path 5409" d="M73.759,18.429A5.237,5.237,0,0,1,72.2,22.178a5.333,5.333,0,0,1-1.669,1.135,5.113,5.113,0,0,1-2.041.42,5.046,5.046,0,0,1-2.041-.42,5.371,5.371,0,0,1-2.862-2.8,5.189,5.189,0,0,1-.41-2.08V.82h3.253V18.162a2.442,2.442,0,0,0,.572,1.784,2.089,2.089,0,0,0,2.862,0,2.442,2.442,0,0,0,.572-1.784V.82H73.7Z" transform="translate(-63.18 -0.82)" fill="#9a9a9a"/>
</svg>
